<svg id="Capa_1" enable-background="new 0 0 512 512" height="512" viewBox="0 0 512 512" width="512" xmlns="http://www.w3.org/2000/svg"><g><path d="m488.841 25.625h-172.071c-8.581 0-15.537 6.956-15.537 15.537v193.578l-16.34 49.718c-2.122 6.457 4.003 12.581 10.46 10.459l49.718-16.34h143.771c8.581 0 15.537-6.956 15.537-15.537v-221.878c0-8.581-6.956-15.537-15.538-15.537z" fill="#d2e9ff"/><path d="m463.567 52.612h-11.02c-1.136-4.033-2.741-7.869-4.749-11.449l7.797-7.797c1.992-1.992 1.992-5.223 0-7.215l-13.077-13.077c-1.992-1.992-5.223-1.992-7.215 0l-7.797 7.797c-3.58-2.008-7.416-3.613-11.449-4.749v-11.02c0-2.818-2.284-5.102-5.102-5.102h-18.494c-2.818 0-5.102 2.284-5.102 5.102v11.02c-4.033 1.136-7.869 2.741-11.449 4.749l-7.797-7.797c-1.992-1.992-5.223-1.992-7.215 0l-13.077 13.077c-1.992 1.992-1.992 5.223 0 7.215l7.797 7.797c-2.008 3.58-3.613 7.416-4.749 11.449h-11.02c-2.818 0-5.102 2.284-5.102 5.102v18.494c0 2.818 2.284 5.102 5.102 5.102h11.02c1.136 4.033 2.741 7.869 4.749 11.449l-7.797 7.797c-1.992 1.992-1.992 5.223 0 7.215l13.077 13.077c1.992 1.992 5.223 1.992 7.215 0l7.797-7.797c2.175 1.22 4.444 2.291 6.795 3.199 1.519.586 3.071 1.104 4.654 1.55v11.02c0 2.818 2.284 5.102 5.102 5.102h18.494c2.818 0 5.102-2.284 5.102-5.102v-11.02c4.033-1.136 7.869-2.741 11.449-4.749l7.797 7.797c1.992 1.992 5.223 1.992 7.215 0l13.077-13.077c1.992-1.992 1.992-5.223 0-7.215l-7.797-7.797c2.008-3.58 3.613-7.416 4.749-11.449h11.02c2.818 0 5.102-2.284 5.102-5.102v-18.494c-.001-2.818-2.285-5.102-5.102-5.102z" fill="#678d98"/><g><path d="m467.344 176.447h-130.693c-4.268 0-7.726-3.459-7.726-7.726s3.459-7.726 7.726-7.726h130.693c4.268 0 7.726 3.459 7.726 7.726s-3.458 7.726-7.726 7.726z" fill="#3e5959"/></g><g><path d="m467.344 211.681h-130.693c-4.268 0-7.726-3.459-7.726-7.726s3.459-7.726 7.726-7.726h130.693c4.268 0 7.726 3.459 7.726 7.726s-3.458 7.726-7.726 7.726z" fill="#3e5959"/></g><g><path d="m467.344 246.915h-130.693c-4.268 0-7.726-3.459-7.726-7.726s3.459-7.726 7.726-7.726h130.693c4.268 0 7.726 3.459 7.726 7.726s-3.458 7.726-7.726 7.726z" fill="#3e5959"/></g><path d="m66.056 389.56h-13.337c-24.907 0-45.098 20.191-45.098 45.098v77.342h270.507v-77.342c0-24.907-20.191-45.098-45.098-45.098z" fill="#c4e2ff"/><path d="m101.091 302.71v67.731l41.629 27.753 41.63-27.753v-67.731z" fill="#ffbfb1"/><path d="m243.193 204.28c-.466 0-.927.016-1.388.035-7.951-47.544-49.283-83.78-99.084-83.78-49.802 0-91.133 36.237-99.084 83.78-.461-.019-.923-.035-1.388-.035-18.842 0-34.117 15.274-34.117 34.117s15.275 34.117 34.117 34.117c.466 0 .927-.016 1.388-.035 7.951 47.544 49.283 83.78 99.084 83.78 49.802 0 91.133-36.236 99.084-83.78.461.019.923.035 1.388.035 18.842 0 34.117-15.275 34.117-34.117s-15.275-34.117-34.117-34.117z" fill="#ffcebf"/><path d="m243.193 204.28c-.466 0-.927.017-1.388.035-7.951-47.544-49.283-83.781-99.084-83.781-4.455 0-8.839.302-13.141.864 43.785 5.722 78.703 39.626 85.943 82.917.461-.019.923-.035 1.388-.035 18.842 0 34.117 15.274 34.117 34.117 0 18.842-15.275 34.117-34.117 34.117-.466 0-.927-.016-1.388-.035-7.24 43.29-42.159 77.194-85.943 82.916 4.302.562 8.685.864 13.141.864 49.802 0 91.133-36.236 99.084-83.78.461.019.923.035 1.388.035 18.842 0 34.117-15.275 34.117-34.117 0-18.843-15.275-34.117-34.117-34.117z" fill="#ffbfb1"/><path d="m229.102 204.315h38.043v-60.528c0-31.162-25.262-56.424-56.424-56.424h-20.086v78.485c0 21.245 17.223 38.467 38.467 38.467z" fill="#a74b30"/><g><g><path d="m93.679 253.418c-4.267 0-7.726-3.459-7.726-7.726v-18.502c0-4.268 3.459-7.726 7.726-7.726s7.726 3.459 7.726 7.726v18.502c0 4.267-3.459 7.726-7.726 7.726z" fill="#384949"/></g><g><path d="m191.762 253.418c-4.267 0-7.726-3.459-7.726-7.726v-18.502c0-4.268 3.459-7.726 7.726-7.726s7.726 3.459 7.726 7.726v18.502c0 4.267-3.459 7.726-7.726 7.726z" fill="#384949"/></g></g><g><path d="m142.72 315.411c-16.026 0-29.064-13.038-29.064-29.063 0-4.268 3.459-7.726 7.726-7.726s7.726 3.459 7.726 7.726c0 7.505 6.106 13.611 13.611 13.611 7.506 0 13.612-6.106 13.612-13.611 0-4.268 3.459-7.726 7.726-7.726s7.726 3.459 7.726 7.726c.002 16.025-13.037 29.063-29.063 29.063z" fill="#ffb09e"/></g><path d="m161.003 204.315h-142.708v-61.601c0-41.64 33.756-75.395 75.395-75.395h81.726c23.493 0 42.537 19.044 42.537 42.537v37.509c0 31.452-25.497 56.95-56.95 56.95z" fill="#c4573a"/><path d="m142.72 398.194-21.337 22.279 7.734 30.307h27.207l7.734-30.307z" fill="#0078c8"/><path d="m129.117 450.78-12.027 61.22h51.256l-12.026-61.22z" fill="#0078c8"/><g><path d="m162.082 243.578h-38.723c-4.267 0-7.726-3.459-7.726-7.726s3.459-7.726 7.726-7.726h38.723c4.267 0 7.726 3.459 7.726 7.726s-3.459 7.726-7.726 7.726z" fill="#384949"/></g><circle cx="401.708" cy="66.96" fill="#c8effe" r="22.198"/><path d="m101.091 370.441-35.189 19.119 49.647 37.004 27.171-28.37z" fill="#b3dafe"/><path d="m184.35 370.441 35.189 19.119-49.647 37.004-27.172-28.37z" fill="#b3dafe"/><g><path d="m215.302 293.949h-14.39c-5.239 0-9.486-4.247-9.486-9.486s4.247-9.486 9.486-9.486h14.39c5.239 0 9.486 4.247 9.486 9.486s-4.247 9.486-9.486 9.486z" fill="#ffb09e"/></g><g><path d="m84.524 293.949h-14.39c-5.239 0-9.486-4.247-9.486-9.486s4.247-9.486 9.486-9.486h14.39c5.239 0 9.486 4.247 9.486 9.486s-4.247 9.486-9.486 9.486z" fill="#ffb09e"/></g><g><path d="m232.687 275.116h-61.487c-9.288 0-16.844-7.556-16.844-16.844v-44.839c0-9.288 7.556-16.844 16.844-16.844h61.487c9.288 0 16.845 7.556 16.845 16.844v44.839c-.001 9.287-7.557 16.844-16.845 16.844zm-61.487-63.075c-.767 0-1.391.624-1.391 1.391v44.839c0 .768.624 1.391 1.391 1.391h61.487c.768 0 1.392-.624 1.392-1.391v-44.839c0-.768-.624-1.391-1.392-1.391z" fill="#384949"/></g><g><path d="m114.241 275.116h-61.487c-9.288 0-16.845-7.556-16.845-16.844v-44.839c0-9.288 7.556-16.844 16.845-16.844h61.487c9.288 0 16.845 7.556 16.845 16.844v44.839c-.001 9.287-7.557 16.844-16.845 16.844zm-61.487-63.075c-.768 0-1.392.624-1.392 1.391v44.839c0 .768.624 1.391 1.392 1.391h61.487c.768 0 1.392-.624 1.392-1.391v-44.839c0-.768-.624-1.391-1.392-1.391z" fill="#384949"/></g><path d="m175.416 67.319h-29.202c23.493 0 42.537 19.045 42.537 42.537v37.509c0 31.453-25.497 56.95-56.95 56.95h29.202c31.453 0 56.95-25.497 56.95-56.95v-37.509c0-23.492-19.044-42.537-42.537-42.537z" fill="#a74b30"/><path d="m233.03 389.56h-32.122c24.907 0 45.098 20.191 45.098 45.098v77.342h32.122v-77.342c0-24.907-20.191-45.098-45.098-45.098z" fill="#b3dafe"/><path d="m184.35 370.441-14.424 9.616 17.491 9.503-30.904 23.034 13.379 13.969 49.647-37.003z" fill="#8ac9fe"/><path d="m401.708 44.763c-2.56 0-5.01.458-7.3 1.259 8.659 3.029 14.897 11.259 14.897 20.939s-6.238 17.91-14.897 20.939c2.29.801 4.74 1.259 7.3 1.259 12.24 0 22.198-9.958 22.198-22.198s-9.958-22.198-22.198-22.198z" fill="#b3dafe"/><g><path d="m463.567 52.612h-11.02c-1.136-4.033-2.741-7.869-4.749-11.449l7.797-7.797c1.992-1.992 1.992-5.222 0-7.215l-13.077-13.077c-1.992-1.992-5.223-1.992-7.215 0l-7.797 7.797c-.38-.213-.774-.403-1.159-.607l5.887 5.887c1.992 1.992 1.992 5.222 0 7.215l-7.797 7.797c2.008 3.579 3.613 7.415 4.749 11.449h11.02c2.818 0 5.102 2.284 5.102 5.102v18.494c0 2.818-2.284 5.102-5.102 5.102h-11.02c-1.136 4.033-2.741 7.869-4.749 11.449l7.797 7.797c1.992 1.992 1.992 5.222 0 7.215l-5.887 5.886c.385-.204.779-.393 1.159-.606l7.797 7.797c1.992 1.992 5.223 1.992 7.215 0l13.077-13.077c1.992-1.992 1.992-5.223 0-7.215l-7.797-7.797c2.008-3.58 3.613-7.416 4.749-11.449h11.02c2.818 0 5.102-2.284 5.102-5.102v-18.495c-.001-2.817-2.285-5.101-5.102-5.101z" fill="#537983"/></g><g><path d="m488.841 25.625h-29.201c8.581 0 15.537 6.956 15.537 15.537v221.878c0 8.581-6.956 15.537-15.537 15.537h29.202c8.581 0 15.537-6.956 15.537-15.537v-221.878c0-8.581-6.956-15.537-15.538-15.537z" fill="#b3dafe"/></g></g></svg>