<?xml version="1.0" encoding="iso-8859-1"?>
<!-- Generator: Adobe Illustrator 19.0.0, SVG Export Plug-In . SVG Version: 6.00 Build 0)  -->
<svg version="1.1" id="Capa_1" xmlns="http://www.w3.org/2000/svg" xmlns:xlink="http://www.w3.org/1999/xlink" x="0px" y="0px"
	 viewBox="0 0 512 512" style="enable-background:new 0 0 512 512;" xml:space="preserve">
<path style="fill:#664B34;" d="M195,391h-30c-8.291,0-15-6.709-15-15v-60c0-8.291,6.709-15,15-15s15,6.709,15,15v45h15
	c8.276,0,15-6.724,15-15v-21.621c0-8.291,6.709-15,15-15s15,6.709,15,15V346C240,370.814,219.814,391,195,391z"/>
<path style="fill:#896748;" d="M165,301h-60c-8.401,0-15,6.599-15,15v120c0,24.899,20.099,45,45,45s45-20.101,45-45V316
	C180,307.599,173.401,301,165,301z"/>
<path style="fill:#00EED0;" d="M120,226l8.401,105H105c-29.099,0-56.1-11.7-76.199-32.701C9.901,278.8,0,252.999,0,226v-5.7
	C2.999,165.7,52.2,121,110.099,121H128.4L120,226z"/>
<path style="fill:#00CCB2;" d="M120,226l8.401,105H105c-29.099,0-56.1-11.7-76.199-32.701C9.901,278.8,0,252.999,0,226H120z"/>
<path style="fill:#FFD400;" d="M377,91v270l-35.099,42.299L269.299,359.2c-30.899-18.9-69.5-28.2-103.1-28.2h-37.798
	C104.7,302.5,90,265.899,90,226c0-39.901,14.7-76.5,38.401-105h37.798c33.9,0,72.501-9.6,103.1-28.2L341.9,48.699L377,91z"/>
<path style="fill:#FDBF00;" d="M377,226v135l-35.099,42.299L269.299,359.2c-30.899-18.9-69.5-28.2-103.1-28.2h-37.798
	C104.7,302.5,90,265.899,90,226H377z"/>
<path style="fill:#FEA832;" d="M512,226c0,109.499-52.8,195-120,195c-23.699,0-32.1-6.901-50.099-17.701
	C314.299,382.899,293,346,281.6,301l65.4-30v-90l-65.4-30c11.4-45,32.699-81.901,60.3-102.301C361.099,37,367.4,31,392,31
	C459.2,31,512,116.499,512,226z"/>
<path style="fill:#FF8700;" d="M512,226c0,109.499-52.8,195-120,195c-23.699,0-32.1-6.901-50.099-17.701
	C314.299,382.899,293,346,281.6,301l65.4-30v-45H512z"/>
<path style="fill:#00CCB2;" d="M422,226c0,41.4-33.6,75-75,75h-65.4c-6-23.401-9.6-48.6-9.6-75s3.6-51.601,9.6-75H347
	C388.4,151,422,184.6,422,226z"/>
<path style="fill:#00AB94;" d="M422,226c0,41.4-33.6,75-75,75h-65.4c-6-23.401-9.6-48.6-9.6-75H422z"/>
<g>
</g>
<g>
</g>
<g>
</g>
<g>
</g>
<g>
</g>
<g>
</g>
<g>
</g>
<g>
</g>
<g>
</g>
<g>
</g>
<g>
</g>
<g>
</g>
<g>
</g>
<g>
</g>
<g>
</g>
</svg>
